<svg xmlns="http://www.w3.org/2000/svg" width="34.973" height="34.973" viewBox="0 0 34.973 34.973">
  <path id="ic_wallpaper_24px" d="M4.615,4.615H13.77V2H4.615A2.623,2.623,0,0,0,2,4.615V13.77H4.615Zm7.846,11.77L7.231,22.924H22.924L19,17.693l-2.655,3.544ZM21.616,10.5a1.962,1.962,0,1,0-1.962,1.962A1.959,1.959,0,0,0,21.616,10.5ZM25.539,2H16.385V4.615h9.154V13.77h2.615V4.615A2.623,2.623,0,0,0,25.539,2Zm0,23.539H16.385v2.615h9.154a2.623,2.623,0,0,0,2.615-2.615V16.385H25.539ZM4.615,16.385H2v9.154a2.623,2.623,0,0,0,2.615,2.615H13.77V25.539H4.615Z" transform="matrix(0.899, -0.438, 0.438, 0.899, -2.674, 10.545)" fill="#ffddd2"/>
</svg>
