<svg xmlns="http://www.w3.org/2000/svg" width="259.567" height="259.567" viewBox="0 0 259.567 259.567">
  <path id="ic_format_shapes_24px" d="M197.6,54.618V1H143.982V18.873H54.618V1H1V54.618H18.873v89.364H1V197.6H54.618V179.727h89.364V197.6H197.6V143.982H179.727V54.618ZM18.873,18.873H36.745V36.745H18.873ZM36.745,179.727H18.873V161.855H36.745Zm107.236-17.873H54.618V143.982H36.745V54.618H54.618V36.745h89.364V54.618h17.873v89.364H143.982Zm35.745,17.873H161.855V161.855h17.873ZM161.855,36.745V18.873h17.873V36.745ZM114.76,117.173H83.572l-6.524,17.873H62.572L92.955,54.618h12.511l30.473,80.427H121.373l-6.613-17.873Zm-27.167-11.26h23.324L99.3,71.687,87.593,105.913Z" transform="matrix(0.914, -0.407, 0.407, 0.914, -1.32, 79.458)" fill="#ffddd2" opacity="0.55"/>
</svg>
